<?xml version="1.0" standalone="no"?>
<!DOCTYPE svg PUBLIC "-//W3C//DTD SVG 20010904//EN"
 "http://www.w3.org/TR/2001/REC-SVG-20010904/DTD/svg10.dtd">
<svg version="1.0" xmlns="http://www.w3.org/2000/svg"
 width="623.000000pt" height="500.000000pt" viewBox="0 0 623.000000 500.000000"
 preserveAspectRatio="xMidYMid meet">

<g transform="translate(0.000000,500.000000) scale(0.100000,-0.100000)"
fill="#000000" stroke="none">
<path d="M888 3699 l-28 -11 0 -114 c0 -113 0 -114 25 -120 14 -3 25 -13 25
-20 0 -28 -56 -127 -435 -779 -106 -181 -203 -350 -216 -375 -24 -44 -24 -49
-24 -320 l0 -275 34 -63 c42 -77 153 -185 238 -230 97 -51 198 -74 338 -75
198 -2 338 51 473 178 l75 71 76 -76 c130 -130 261 -180 468 -180 231 0 407
73 529 219 l41 49 58 -65 c76 -85 179 -152 281 -183 68 -21 99 -24 224 -24 84
0 164 5 190 12 121 34 244 99 348 182 l56 46 65 -67 c75 -76 188 -137 306
-165 91 -21 258 -22 347 0 131 31 278 118 349 206 l30 37 72 -72 c81 -81 153
-123 274 -157 64 -19 102 -22 218 -22 125 0 149 3 220 27 106 35 170 74 251
149 131 123 144 164 144 453 0 157 -4 224 -15 261 -8 28 -76 153 -151 279
-462 775 -544 918 -544 952 0 6 15 13 33 15 l32 3 0 112 c0 61 -3 115 -7 118
-4 4 -27 11 -50 16 -24 4 -864 8 -1868 8 -1004 1 -1967 3 -2140 6 -215 3 -324
2 -342 -6z m802 -239 c0 -6 -22 -63 -49 -128 -49 -117 -366 -889 -424 -1032
l-30 -75 -2 -240 c-2 -140 -7 -257 -14 -282 -19 -69 -67 -124 -146 -163 -67
-34 -74 -35 -180 -35 -133 0 -187 17 -257 83 -80 74 -88 136 -70 522 l7 145
297 520 c162 286 318 559 344 607 l49 88 238 0 c153 0 237 -4 237 -10z m805
-17 c-3 -16 -32 -197 -66 -403 -33 -206 -76 -474 -96 -595 -32 -197 -37 -247
-42 -475 l-6 -255 -30 -60 c-55 -109 -146 -155 -310 -155 -160 0 -255 46 -307
150 -26 52 -28 66 -33 224 -9 272 16 420 125 741 34 99 111 332 173 518 l111
337 243 0 243 0 -5 -27z m815 20 c0 -5 5 -42 10 -83 11 -85 38 -374 75 -814
31 -368 36 -840 10 -904 -20 -46 -78 -108 -125 -132 -104 -53 -305 -53 -411 1
-47 23 -103 87 -120 135 -25 71 -16 521 25 1174 20 322 39 595 41 608 l5 22
245 0 c135 0 245 -3 245 -7z m856 -153 c129 -355 364 -1044 373 -1096 6 -32
11 -155 11 -274 0 -247 -7 -281 -70 -353 -23 -25 -62 -54 -92 -68 -47 -21 -68
-24 -178 -24 -116 0 -129 2 -185 28 -71 33 -100 58 -128 112 -20 37 -22 60
-28 330 -6 267 -9 302 -37 450 -17 88 -46 243 -66 345 -19 102 -55 289 -79
415 -25 127 -47 242 -50 258 l-4 27 240 -2 241 -3 52 -145z m961 -218 c117
-202 278 -479 358 -616 96 -167 148 -266 155 -300 8 -32 10 -134 8 -276 -3
-208 -5 -228 -25 -266 -55 -103 -148 -148 -309 -149 -99 0 -103 1 -180 40 -69
35 -83 47 -111 95 -33 54 -33 55 -35 200 -2 80 -1 180 0 223 6 142 -3 167
-271 767 -170 383 -267 612 -267 634 0 14 27 16 233 16 l232 -1 212 -367z"/>
</g>
</svg>
